<svg aria-hidden="true" style="width:0;height:0;position:absolute;overflow:hidden" xmlns="http://www.w3.org/2000/svg"><defs><symbol id="app" viewBox="0 0 32 32"><path d="M22 4a6 6 0 0 1 6 6v12a6 6 0 0 1-6 6H10a6 6 0 0 1-6-6V10a6 6 0 0 1 6-6h12zM10 2a8 8 0 0 0-8 8v12a8 8 0 0 0 8 8h12a8 8 0 0 0 8-8V10a8 8 0 0 0-8-8H10z"/></symbol><symbol id="circle" viewBox="0 0 32 32"><path d="M16 30C8.268 30 2 23.732 2 16S8.268 2 16 2s14 6.268 14 14-6.268 14-14 14zm0 2c8.837 0 16-7.163 16-16S24.837 0 16 0 0 7.163 0 16s7.163 16 16 16z"/></symbol><symbol id="x-lg" viewBox="0 0 32 32"><path d="M4.292 5.708a1 1 0 1 1 1.416-1.416L16 14.586 26.292 4.292a1 1 0 1 1 1.416 1.416L17.414 16l10.294 10.292a1 1 0 1 1-1.416 1.416L16 17.414 5.708 27.708a1 1 0 1 1-1.416-1.416L14.586 16 4.292 5.708z"/></symbol><symbol id="check" viewBox="0 0 32 32"><path d="M27.708 7.292a.998.998 0 0 1 0 1.416l-14 14a.998.998 0 0 1-1.416 0l-7-7a1 1 0 1 1 1.416-1.416L13 20.586 26.292 7.292a.998.998 0 0 1 1.416 0z"/></symbol><symbol id="x" viewBox="0 0 32 32"><path d="M9.292 9.292a.998.998 0 0 1 1.416 0L16 14.586l5.292-5.294a1 1 0 1 1 1.416 1.416L17.414 16l5.294 5.292a1 1 0 1 1-1.416 1.416L16 17.414l-5.292 5.294a1 1 0 1 1-1.416-1.416L14.586 16l-5.294-5.292a.998.998 0 0 1 0-1.416z"/></symbol><symbol id="trash-fill" viewBox="0 0 32 32"><path d="M5 2a2 2 0 0 0-2 2v2a2 2 0 0 0 2 2h1v18a4 4 0 0 0 4 4h12a4 4 0 0 0 4-4V8h1a2 2 0 0 0 2-2V4a2 2 0 0 0-2-2h-7a2 2 0 0 0-2-2h-4a2 2 0 0 0-2 2H5zm6 8a1 1 0 0 1 1 1v14a1 1 0 0 1-2 0V11a1 1 0 0 1 1-1zm5 0a1 1 0 0 1 1 1v14a1 1 0 0 1-2 0V11a1 1 0 0 1 1-1zm6 1v14a1 1 0 0 1-2 0V11a1 1 0 0 1 2 0z"/></symbol></defs></svg>